<svg width="22" height="18" viewBox="0 0 22 18" fill="none" xmlns="http://www.w3.org/2000/svg">
<path d="M1.83331 4.27637L9.31782 9.51552C9.9239 9.93977 10.2269 10.1519 10.5566 10.2341C10.8477 10.3066 11.1522 10.3066 11.4434 10.2341C11.773 10.1519 12.0761 9.93978 12.6821 9.51552L20.1666 4.27637M6.23331 16.193H15.7666C17.3068 16.193 18.0769 16.193 18.6651 15.8933C19.1826 15.6297 19.6033 15.209 19.8669 14.6915C20.1666 14.1033 20.1666 13.3332 20.1666 11.793V5.92637C20.1666 4.38622 20.1666 3.61615 19.8669 3.02789C19.6033 2.51045 19.1826 2.08975 18.6651 1.8261C18.0769 1.52637 17.3068 1.52637 15.7666 1.52637H6.23331C4.69317 1.52637 3.9231 1.52637 3.33484 1.8261C2.81739 2.08975 2.3967 2.51045 2.13305 3.02789C1.83331 3.61615 1.83331 4.38622 1.83331 5.92637V11.793C1.83331 13.3332 1.83331 14.1033 2.13305 14.6915C2.3967 15.209 2.81739 15.6297 3.33484 15.8933C3.9231 16.193 4.69317 16.193 6.23331 16.193Z" stroke="#205B2D" stroke-width="2" stroke-linecap="round" stroke-linejoin="round"/>
</svg>
