<svg width="46" height="47" viewBox="0 0 46 47" fill="none" xmlns="http://www.w3.org/2000/svg">
<rect y="0.859863" width="46" height="46" rx="23" fill="white"/>
<path d="M32.9988 28.0494C32.9988 31.6894 30.8288 33.8594 27.1888 33.8594H25.9988C25.4488 33.8594 24.9988 33.4094 24.9988 32.8594V27.0894C24.9988 26.8194 25.2188 26.5894 25.4888 26.5894L27.2488 26.5594C27.3888 26.5494 27.5088 26.4494 27.5388 26.3094L27.8888 24.3994C27.9188 24.2194 27.7788 24.0494 27.5888 24.0494L25.4588 24.0794C25.1788 24.0794 24.9588 23.8594 24.9488 23.5894L24.9088 21.1394C24.9088 20.9794 25.0388 20.8394 25.2088 20.8394L27.6088 20.7994C27.7788 20.7994 27.9088 20.6694 27.9088 20.4994L27.8688 18.0994C27.8688 17.9294 27.7388 17.7994 27.5688 17.7994L24.8688 17.8394C23.2088 17.8694 21.8888 19.2294 21.9188 20.8894L21.9688 23.6394C21.9788 23.9194 21.7588 24.1394 21.4788 24.1494L20.2788 24.1694C20.1088 24.1694 19.9788 24.2994 19.9788 24.4694L20.0088 26.3694C20.0088 26.5394 20.1388 26.6694 20.3088 26.6694L21.5088 26.6494C21.7888 26.6494 22.0088 26.8694 22.0188 27.1394L22.1088 32.8394C22.1188 33.3994 21.6688 33.8594 21.1088 33.8594H18.8088C15.1688 33.8594 12.9988 31.6894 12.9988 28.0394V19.6694C12.9988 16.0294 15.1688 13.8594 18.8088 13.8594H27.1888C30.8288 13.8594 32.9988 16.0294 32.9988 19.6694V28.0494Z" fill="#205B2D"/>
</svg>
