<svg width="46" height="47" viewBox="0 0 46 47" fill="none" xmlns="http://www.w3.org/2000/svg">
<rect y="0.859863" width="46" height="46" rx="23" fill="white"/>
<g clip-path="url(#clip0_4_1313)">
<path d="M27.19 13.8599H18.81C15.17 13.8599 13 16.0299 13 19.6699V28.0399C13 31.6899 15.17 33.8599 18.81 33.8599H27.18C30.82 33.8599 32.99 31.6899 32.99 28.0499V19.6699C33 16.0299 30.83 13.8599 27.19 13.8599ZM23 27.7399C20.86 27.7399 19.12 25.9999 19.12 23.8599C19.12 21.7199 20.86 19.9799 23 19.9799C25.14 19.9799 26.88 21.7199 26.88 23.8599C26.88 25.9999 25.14 27.7399 23 27.7399ZM28.92 18.7399C28.87 18.8599 28.8 18.9699 28.71 19.0699C28.61 19.1599 28.5 19.2299 28.38 19.2799C28.26 19.3299 28.13 19.3599 28 19.3599C27.73 19.3599 27.48 19.2599 27.29 19.0699C27.2 18.9699 27.13 18.8599 27.08 18.7399C27.03 18.6199 27 18.4899 27 18.3599C27 18.2299 27.03 18.0999 27.08 17.9799C27.13 17.8499 27.2 17.7499 27.29 17.6499C27.52 17.4199 27.87 17.3099 28.19 17.3799C28.26 17.3899 28.32 17.4099 28.38 17.4399C28.44 17.4599 28.5 17.4899 28.56 17.5299C28.61 17.5599 28.66 17.6099 28.71 17.6499C28.8 17.7499 28.87 17.8499 28.92 17.9799C28.97 18.0999 29 18.2299 29 18.3599C29 18.4899 28.97 18.6199 28.92 18.7399Z" fill="#205B2D"/>
</g>
<defs>
<clipPath id="clip0_4_1313">
<rect width="24" height="24" fill="white" transform="translate(11 11.8599)"/>
</clipPath>
</defs>
</svg>
