<svg width="22" height="23" viewBox="0 0 22 23" fill="none" xmlns="http://www.w3.org/2000/svg">
<path d="M7.68192 8.97544C8.31992 10.3043 9.18964 11.5497 10.2911 12.6511C11.3925 13.7526 12.638 14.6223 13.9668 15.2603C14.0811 15.3152 14.1382 15.3426 14.2105 15.3637C14.4675 15.4386 14.7831 15.3848 15.0007 15.2289C15.062 15.1851 15.1144 15.1327 15.2192 15.0279C15.5396 14.7074 15.6999 14.5472 15.861 14.4424C16.4687 14.0474 17.252 14.0474 17.8597 14.4424C18.0208 14.5472 18.181 14.7074 18.5015 15.0279L18.6801 15.2065C19.1673 15.6937 19.4109 15.9373 19.5432 16.1989C19.8063 16.7191 19.8063 17.3335 19.5432 17.8538C19.4109 18.1154 19.1673 18.359 18.6801 18.8461L18.5356 18.9906C18.0502 19.4761 17.8074 19.7189 17.4774 19.9043C17.1112 20.11 16.5424 20.2579 16.1223 20.2567C15.7438 20.2555 15.4851 20.1821 14.9677 20.0352C12.1871 19.246 9.56325 17.7569 7.37427 15.5679C5.18529 13.379 3.69619 10.7551 2.90697 7.97451C2.76011 7.4571 2.68668 7.1984 2.68555 6.81986C2.6843 6.39983 2.83222 5.83104 3.03794 5.46483C3.22333 5.1348 3.46608 4.89206 3.95156 4.40657L4.09606 4.26207C4.58322 3.77491 4.8268 3.53134 5.08839 3.39902C5.60866 3.13587 6.22307 3.13587 6.74333 3.39902C7.00493 3.53134 7.24851 3.77491 7.73567 4.26207L7.9143 4.4407C8.23477 4.76117 8.395 4.92141 8.49977 5.08254C8.89484 5.69019 8.89485 6.47355 8.49977 7.0812C8.395 7.24233 8.23477 7.40257 7.9143 7.72304C7.80951 7.82783 7.75712 7.88022 7.71326 7.94146C7.55742 8.15911 7.50361 8.47468 7.57852 8.73167C7.5996 8.80399 7.62704 8.86114 7.68192 8.97544Z" stroke="#205B2D" stroke-width="2" stroke-linecap="round" stroke-linejoin="round"/>
</svg>
