<svg width="16" height="15" viewBox="0 0 16 15" fill="none" xmlns="http://www.w3.org/2000/svg">
<path d="M8.00052 11.8076L8.25876 11.9638L11.7171 14.0555L11.7172 14.0556C11.9702 14.2087 12.28 13.9845 12.213 13.6966L11.2964 9.76348L11.2279 9.46967L11.4559 9.27212L14.5142 6.62212L14.5144 6.62197C14.7395 6.42714 14.6153 6.06302 14.327 6.04009L14.3244 6.03988L14.3244 6.03987L10.2994 5.69821L9.99894 5.6727L9.8813 5.39509L8.3063 1.67842L8.30563 1.67685C8.19383 1.41049 7.80617 1.41049 7.69437 1.67685L7.69355 1.67879L7.69355 1.67879L6.11854 5.38713L6.00078 5.66439L5.70062 5.68987L1.67562 6.03154L1.67298 6.03176L1.67298 6.03176C1.38474 6.05469 1.26052 6.4188 1.48558 6.61363L1.48576 6.61379L4.54409 9.26379L4.77209 9.46134L4.70362 9.75515L3.787 13.6883L8.00052 11.8076ZM8.00052 11.8076L7.74199 11.9634M8.00052 11.8076L7.74199 11.9634M7.74199 11.9634L4.28366 14.0467L4.28276 14.0472M7.74199 11.9634L4.28276 14.0472M4.28276 14.0472C4.02988 14.2003 3.72021 13.9763 3.78695 13.6885L4.28276 14.0472ZM11.7833 9.65L14.8417 7L11.7833 9.65Z" fill="#BFBFBF"/>
<path d="M8.00052 11.8076L8.25876 11.9638L11.7171 14.0555L11.7172 14.0556C11.9702 14.2087 12.28 13.9845 12.213 13.6966L11.2964 9.76348L11.2279 9.46967L11.4559 9.27212L14.5142 6.62212L14.5144 6.62197C14.7395 6.42714 14.6153 6.06302 14.327 6.04009L14.3244 6.03988L14.3244 6.03987L10.2994 5.69821L9.99894 5.6727L9.8813 5.39509L8.3063 1.67842L8.30563 1.67685C8.19383 1.41049 7.80617 1.41049 7.69437 1.67685L7.69355 1.67879L7.69355 1.67879L6.11854 5.38713L6.00078 5.66439L5.70062 5.68987L1.67562 6.03154L1.67298 6.03176L1.67298 6.03176C1.38474 6.05469 1.26052 6.4188 1.48558 6.61363L1.48576 6.61379L4.54409 9.26379L4.77209 9.46134L4.70362 9.75515L3.787 13.6883L8.00052 11.8076ZM8.00052 11.8076L7.74199 11.9634M8.00052 11.8076L7.74199 11.9634M7.74199 11.9634L4.28366 14.0467L4.28276 14.0472M7.74199 11.9634L4.28276 14.0472M4.28276 14.0472C4.02988 14.2003 3.72021 13.9763 3.78695 13.6885L4.28276 14.0472ZM11.7833 9.65L14.8417 7L11.7833 9.65Z" fill="url(#paint0_linear_0_69)"/>
<path d="M8.00052 11.8076L8.25876 11.9638L11.7171 14.0555L11.7172 14.0556C11.9702 14.2087 12.28 13.9845 12.213 13.6966L11.2964 9.76348L11.2279 9.46967L11.4559 9.27212L14.5142 6.62212L14.5144 6.62197C14.7395 6.42714 14.6153 6.06302 14.327 6.04009L14.3244 6.03988L14.3244 6.03987L10.2994 5.69821L9.99894 5.6727L9.8813 5.39509L8.3063 1.67842L8.30563 1.67685C8.19383 1.41049 7.80617 1.41049 7.69437 1.67685L7.69355 1.67879L7.69355 1.67879L6.11854 5.38713L6.00078 5.66439L5.70062 5.68987L1.67562 6.03154L1.67298 6.03176L1.67298 6.03176C1.38474 6.05469 1.26052 6.4188 1.48558 6.61363L1.48576 6.61379L4.54409 9.26379L4.77209 9.46134L4.70362 9.75515L3.787 13.6883L8.00052 11.8076ZM8.00052 11.8076L7.74199 11.9634M8.00052 11.8076L7.74199 11.9634M7.74199 11.9634L4.28366 14.0467L4.28276 14.0472M7.74199 11.9634L4.28276 14.0472M4.28276 14.0472C4.02988 14.2003 3.72021 13.9763 3.78695 13.6885L4.28276 14.0472ZM11.7833 9.65L14.8417 7L11.7833 9.65Z" stroke="#EBE715"/>
<defs>
<linearGradient id="paint0_linear_0_69" x1="1.33334" y1="7.99999" x2="14.6667" y2="7.99999" gradientUnits="userSpaceOnUse">
<stop offset="0.524" stop-color="#C7D411"/>
<stop offset="0.644" stop-color="#C7D411" stop-opacity="0"/>
</linearGradient>
</defs>
</svg>
